<svg xmlns="http://www.w3.org/2000/svg" data-name="Layer 1" viewBox="0 0 64 80" x="0px" y="0px"><path d="M24,11a4,4,0,0,0-4,4V47a4,4,0,0,0,4,4H40a4,4,0,0,0,4-4V15a4,4,0,0,0-4-4Zm18,3.809V47.191A1.809,1.809,0,0,1,40.191,49H23.809A1.809,1.809,0,0,1,22,47.191V14.809A1.809,1.809,0,0,1,23.809,13H26l.724,1.447a1,1,0,0,0,.894.553h8.764a1,1,0,0,0,.894-.553L38,13h2.191A1.809,1.809,0,0,1,42,14.809Z"/><circle cx="32" cy="20.875" r="3.125"/><path d="M37,27a3,3,0,0,0-3-3H30a3,3,0,0,0-3,3v7H37Z"/><rect x="25" y="38" width="4" height="2"/><rect x="31" y="38" width="8" height="2"/><rect x="25" y="42" width="9" height="2"/><rect x="36" y="42" width="3" height="2"/><path d="M54.477,46.523A3.5,3.5,0,0,0,48.5,49v1.5H48a1,1,0,0,0-1,1v6a1,1,0,0,0,1,1h8a1,1,0,0,0,1-1v-6a1,1,0,0,0-1-1h-.5V49A3.477,3.477,0,0,0,54.477,46.523ZM53.5,50.5h-3V49a1.5,1.5,0,1,1,3,0Z"/><path d="M32,1a31,31,0,0,0,0,62,30.589,30.589,0,0,0,12.958-2.845l-.84-1.814A28.622,28.622,0,0,1,32,61,28.984,28.984,0,1,1,57.655,45.533l1.769.934A31.01,31.01,0,0,0,32,1Z"/></svg>